<svg height="24" width="24" xmlns="http://www.w3.org/2000/svg"><g fill="none" fill-rule="evenodd"><path d="m0 0h24v24h-24z"/><path d="m11 4.07v-2.02c-2.01.2-3.84 1-5.32 2.21l1.42 1.43a7.941 7.941 0 0 1 3.9-1.62zm-5.31 3.03-1.43-1.42a9.949 9.949 0 0 0 -2.21 5.32h2.02c.18-1.46.76-2.79 1.62-3.9zm-3.64 5.9c.2 2.01 1 3.84 2.21 5.32l1.43-1.43a7.868 7.868 0 0 1 -1.62-3.89zm8.95 8.95v-2.02a7.941 7.941 0 0 1 -3.9-1.62l-1.42 1.43a9.981 9.981 0 0 0 5.32 2.21zm11-9.95c0 5.16-3.92 9.42-8.95 9.95v-2.02c3.92-.52 6.95-3.88 6.95-7.93s-3.03-7.41-6.95-7.93v-2.02c5.03.53 8.95 4.79 8.95 9.95zm-11.312-3.424 4.746 2.736a.792.792 0 0 1 0 1.372l-4.746 2.737a.792.792 0 0 1 -1.188-.686v-5.473a.792.792 0 0 1 1.188-.686z" fill="#fff" fill-rule="nonzero"/></g></svg>