<svg height="24" viewBox="0 0 24 24" width="24" xmlns="http://www.w3.org/2000/svg"><g fill="none" fill-rule="evenodd"><path d="m0 0h24v24h-24z"/><path d="m6.292 7.1c-1.186-.574-1.942-1.37-1.942-2.353 0-2.135 2.621-4.041 4.685-3.354 1.018.34 1.889 1.44 2.715 3.317.826-1.877 1.697-2.977 2.715-3.317 2.064-.687 4.685 1.22 4.685 3.354 0 .982-.756 1.779-1.942 2.353h.667a3.775 3.775 0 0 1 3.775 3.775v.875a2.901 2.901 0 0 1 -2 2.758v2.742a4.9 4.9 0 0 1 -4.9 4.9h-6a4.9 4.9 0 0 1 -4.9-4.9v-2.742a2.901 2.901 0 0 1 -2-2.758v-.875a3.775 3.775 0 0 1 3.775-3.775zm11.558 7.5h-5.25v5.75h2.15a3.1 3.1 0 0 0 3.1-3.1zm1.15-1.779a1.1 1.1 0 0 0 .85-1.071v-.875c0-1.09-.884-1.975-1.975-1.975h-5.275v3.9h6.4zm-13.35 1.779v2.65a3.1 3.1 0 0 0 3.1 3.1h2.05v-5.75zm-1.229-1.8h6.379v-3.9h-5.175c-1.09 0-1.975.884-1.975 1.975v.875c0 .493.324.91.771 1.05zm4.044-9.699c-.894-.298-2.315.736-2.315 1.646 0 .536 1.973 1.31 4.299 1.536-.75-1.94-1.46-3.008-1.984-3.182zm8.885 1.646c0-.91-1.421-1.944-2.315-1.646-.524.174-1.233 1.242-1.984 3.182 2.326-.227 4.299-1 4.299-1.536z" fill="#fff"/></g></svg>