<svg viewBox="0 0 24 24" xmlns="http://www.w3.org/2000/svg" height="100%" width="100%"><path d="m0 0h24v24h-24z" fill="none"/><path d="m17 2.9a6.43 6.43 0 0 1 6.4 6.43c0 3.57-1.43 5.36-7.45 10l-2.78 2.16a1.9 1.9 0 0 1 -2.33 0l-2.79-2.12c-6.05-4.68-7.45-6.47-7.45-10.04a6.43 6.43 0 0 1 6.4-6.43 6.46 6.46 0 0 1 5 2.54 6.46 6.46 0 0 1 5-2.54zm-10 1.8a4.63 4.63 0 0 0 -4.6 4.63c0 2.82 1.15 4.26 6.76 8.63l2.78 2.16a.1.1 0 0 0 .12 0l2.78-2.12c5.61-4.36 6.76-5.8 6.76-8.63a4.63 4.63 0 0 0 -4.6-4.67c-1.56 0-3 .88-4.23 2.73l-.77 1.07-.74-1.07c-1.26-1.85-2.68-2.73-4.26-2.73z" fill="#fff"/></svg>