<svg height="24" viewBox="0 0 24 24" width="24" xmlns="http://www.w3.org/2000/svg"><g fill="none" fill-rule="evenodd"><path d="m0 0h24v24h-24z"/><path d="m16.8722296 4c1.7830375 0 2.42961.18565122 3.0814618.53426541.6518519.34861418 1.163429.86019133 1.5120432 1.51204318s.5342654 1.29842433.5342654 3.08146181v5.7444592c0 1.7830375-.1856512 2.42961-.5342654 3.0814618-.3486142.6518519-.8601913 1.163429-1.5120432 1.5120432-.6518518.3486142-1.2984243.5342654-3.0814618.5342654h-9.7444592c-1.78303748 0-2.42960996-.1856512-3.08146181-.5342654s-1.163429-.8601913-1.51204318-1.5120432c-.34861419-.6518518-.53426541-1.2984243-.53426541-3.0814618v-5.7444592c0-1.78303748.18565122-2.42960996.53426541-3.08146181.34861418-.65185185.86019133-1.163429 1.51204318-1.51204318.65185185-.34861419 1.29842433-.53426541 3.08146181-.53426541zm.237633 2.00092794-9.9820922-.00092794c-1.32370383 0-1.72680895.07784319-2.13826409.2978918-.3033149.16221459-.52939992.38829961-.69161451.69161451-.20629557.38573919-.28760591.7641395-.29696386 1.90063109l-.00092794 5.9820922c0 1.3237038.07784319 1.726809.2978918 2.1382641.16221459.3033149.38829961.5293999.69161451.6916145.41145514.2200486.81456026.2978918 2.13826409.2978918h9.7444592c1.3237038 0 1.726809-.0778432 2.1382641-.2978918.3033149-.1622146.5293999-.3882996.6916145-.6916145.2200486-.4114551.2978918-.8145603.2978918-2.1382641v-5.7444592c0-1.32370383-.0778432-1.72680895-.2978918-2.13826409-.1622146-.3033149-.3882996-.52939992-.6916145-.69161451-.3857392-.20629557-.7641395-.28760591-1.9006311-.29696386zm-.1098626 7.99907206c.5522847 0 1 .4477153 1 1s-.4477153 1-1 1h-2c-.5522847 0-1-.4477153-1-1s.4477153-1 1-1zm-5 0c.5522847 0 1 .4477153 1 1s-.4477153 1-1 1h-5c-.55228475 0-1-.4477153-1-1s.44771525-1 1-1zm5-4c.5522847 0 1 .4477153 1 1s-.4477153 1-1 1h-5c-.5522847 0-1-.4477153-1-1s.4477153-1 1-1zm-8 0c.55228475 0 1 .4477153 1 1s-.44771525 1-1 1h-2c-.55228475 0-1-.4477153-1-1s.44771525-1 1-1z" fill="#fff" fill-rule="nonzero"/></g></svg>